<?xml version="1.0" encoding="utf-8"?>
<!-- Generator: Adobe Illustrator 23.0.6, SVG Export Plug-In . SVG Version: 6.00 Build 0)  -->
<svg version="1.1" id="Layer_1" xmlns="http://www.w3.org/2000/svg" xmlns:xlink="http://www.w3.org/1999/xlink" x="0px" y="0px"
	 viewBox="0 0 970 170" style="enable-background:new 0 0 970 170;" xml:space="preserve">
<style type="text/css">
	.st0{fill:none;stroke:#5e6269;stroke-miterlimit:10;}
	.st1{fill:#FFFFFF;stroke:#5e6269;stroke-miterlimit:10;}
	.st2{fill:#FFFFFF;stroke:#000000;stroke-miterlimit:10;}
	.st3{fill:#5e6269;stroke:#FFFFFF;stroke-miterlimit:10;}
	.st4{stroke:#FFFFFF;stroke-miterlimit:10;}
	.st5{stroke:#5e6269;stroke-miterlimit:10;}
	.st6{fill:#5e6269;stroke:#000000;stroke-miterlimit:10;}
	.st7{fill:#FFFFFF;}
	.st8{fill:#5e6269;}
</style>
<g>
	<g>
		<g>
			<g>
				<path class="st7" d="M64.24,147.65c-14.78,0-27.89-4.24-38.97-12.59c-2-1.51-2.62-4.25-1.61-7.07
					c1.58-4.39,4.11-8.79,7.52-13.06c3.34-4.19,7.02-7.72,10.92-10.49c1.74-1.23,3.68-1.87,5.47-1.87c1.35,0,2.61,0.36,3.62,1.1
					c8.18,5.94,16.61,8.95,25.07,8.95c3.39,0,4.44-0.79,4.45-0.79c0.61-0.47,0.98-0.9,1.24-1.87c0.51-1.89-1.87-3.49-3.96-4.5
					l-16.14-7.72c-7.27-3.71-12.46-8.25-15.55-13.58c-3.42-5.86-3.97-13.25-1.63-21.97c1.57-5.87,4.26-11.35,7.99-16.29
					c3.67-4.86,8.17-9.13,13.38-12.69c5.09-3.47,10.76-6.19,16.88-8.08c5.99-1.85,12.36-2.79,18.93-2.79
					c12.67,0,24.69,3.23,35.74,9.61c2.35,1.36,3.22,4.21,2.21,7.24c-3.32,9.97-9.12,17.95-17.26,23.73
					c-1.73,1.23-3.68,1.87-5.48,1.87c-1.11,0-2.16-0.24-3.06-0.74c-8.22-4.53-15.87-6.83-22.73-6.83c-2.43,0-3.92,0.45-4.45,0.84
					c-0.53,0.38-0.75,0.64-0.78,0.7c-0.01,0,0.28,1.24,3.67,2.78l16.54,7.93c8.01,3.81,13.59,8.89,16.59,15.09
					c3.12,6.46,3.55,14.02,1.29,22.46c-1.57,5.86-4.14,11.35-7.63,16.31c-3.57,5.06-8.06,9.49-13.36,13.16
					c-5.17,3.58-11.13,6.38-17.73,8.32C78.99,146.7,71.88,147.65,64.24,147.65z"/>
				<path class="st8" d="M64.24,149.54c-15.2,0-28.7-4.37-40.11-12.97c-2.66-2-3.54-5.62-2.25-9.22c1.65-4.59,4.28-9.16,7.82-13.6
					c3.45-4.32,7.25-7.98,11.31-10.85c3.64-2.57,8.35-2.9,11.29-0.76c7.85,5.7,15.91,8.59,23.95,8.59c2.3,0,3.24-0.4,3.4-0.48
					c0.28-0.24,0.37-0.39,0.47-0.79c0.06-0.2-0.57-1.16-2.96-2.32l-16.14-7.72c-7.59-3.87-13.08-8.69-16.37-14.33
					c-3.68-6.31-4.29-14.19-1.82-23.4c1.64-6.1,4.43-11.8,8.3-16.94c3.8-5.03,8.45-9.44,13.83-13.11
					c5.25-3.58,11.09-6.38,17.39-8.33c6.18-1.91,12.73-2.88,19.49-2.88c13,0,25.34,3.32,36.68,9.86c3.12,1.8,4.35,5.61,3.06,9.47
					c-3.45,10.36-9.49,18.66-17.96,24.67c-3.32,2.36-7.6,2.87-10.55,1.24c-7.94-4.38-15.28-6.6-21.81-6.6
					c-0.8,0-1.45,0.06-1.96,0.13c0.32,0.18,0.71,0.38,1.18,0.6l16.57,7.94c8.41,3.99,14.29,9.37,17.47,15.97
					c3.32,6.88,3.79,14.88,1.41,23.77c-1.63,6.07-4.29,11.76-7.91,16.91c-3.7,5.25-8.35,9.84-13.83,13.63
					c-5.33,3.69-11.48,6.58-18.27,8.58C79.35,148.56,72.06,149.54,64.24,149.54z M47.57,104.46c-1.44,0-3,0.54-4.38,1.52
					c-3.76,2.67-7.31,6.08-10.54,10.12c-3.28,4.11-5.71,8.33-7.22,12.52c-0.73,2.04-0.36,3.93,0.97,4.93
					c10.75,8.1,23.48,12.21,37.84,12.21c7.46,0,14.4-0.93,20.61-2.75c6.4-1.89,12.19-4.6,17.18-8.06c5.11-3.54,9.45-7.81,12.9-12.7
					c3.36-4.78,5.83-10.07,7.34-15.71c2.14-7.99,1.75-15.11-1.16-21.15c-2.8-5.81-8.09-10.59-15.7-14.21l-16.54-7.93
					c-4.24-1.94-4.73-3.76-4.74-4.45l-0.01-0.55l0.28-0.47c0.28-0.46,0.85-0.93,1.29-1.25c1.06-0.77,3.09-1.2,5.57-1.2
					c7.18,0,15.14,2.38,23.64,7.07c1.69,0.94,4.38,0.52,6.54-1.01c7.8-5.54,13.38-13.21,16.57-22.79c0.73-2.18,0.2-4.1-1.37-5.01
					c-10.75-6.21-22.46-9.35-34.79-9.35c-6.38,0-12.56,0.91-18.37,2.71c-5.93,1.84-11.44,4.47-16.37,7.84
					c-5.04,3.44-9.39,7.56-12.94,12.27c-3.58,4.75-6.16,10.01-7.67,15.64c-2.2,8.21-1.72,15.12,1.44,20.53
					c2.92,5.01,7.89,9.33,14.78,12.85l16.1,7.7c4.94,2.39,5.43,4.96,4.97,6.69c-0.42,1.55-1.17,2.3-1.92,2.87
					c-0.04,0.06-1.37,1.19-5.6,1.19c-8.86,0-17.66-3.13-26.17-9.31C49.42,104.72,48.55,104.46,47.57,104.46z"/>
			</g>
		</g>
		<g>
			<g>
				<path class="st7" d="M220.52,146.26c-7.4,0-12.31-1.01-15.46-3.19c-3.81-2.63-5.36-7.44-4.61-14.3l2.24-20.16l-12.91,30.21
					c-1.44,3.38-4.88,5.97-8.37,6.32c-7.45,0.74-14.23,1.12-20.16,1.12c-7.24,0-12.08-1.01-15.23-3.19
					c-3.71-2.57-5.38-7.27-4.95-13.97l6.95-94.06c0.27-3.61,3.24-7.21,7.04-8.5c6.45-2.2,11.9-3.26,16.66-3.26
					c6.34,0,10.83,1.68,13.35,5c2.36,3.11,3.12,8.01,2.35,14.98l-2.83,26.94l15.7-37.13c1.34-3.16,4.44-5.67,7.73-6.26
					c4.55-0.82,10.32-1.21,17.65-1.21c7.34,0,12.86,0.4,16.87,1.22c2.99,0.61,4.73,3.15,4.34,6.32l-4.51,36.78l16.93-38.95
					c1.34-3.08,4.34-5.52,7.56-6.15c3.67-0.72,7.77-1.08,12.17-1.08c5.48,0,10.27,0.69,14.23,2.05c1.34,0.46,2.39,1.35,3.01,2.56
					l0.71,1.39c0.88,1.73,0.81,3.95-0.19,6.1L248.7,139.1c-1.51,3.24-4.84,5.69-8.21,6.04
					C233.34,145.88,226.62,146.26,220.52,146.26z"/>
				<path class="st8" d="M220.52,148.15c-7.8,0-13.05-1.12-16.53-3.52c-4.42-3.06-6.25-8.46-5.42-16.06l0.83-7.46l-7.89,18.46
					c-1.73,4.04-5.71,7.03-9.92,7.45c-7.51,0.75-14.36,1.13-20.35,1.13c-7.64,0-12.83-1.12-16.3-3.53
					c-4.3-2.97-6.23-8.23-5.76-15.64l6.95-94.08c0.32-4.35,3.82-8.62,8.31-10.15c15.93-5.43,27.15-4.15,32.12,2.38
					c2.66,3.51,3.55,8.85,2.73,16.33l-1.51,14.32l10.76-25.45c1.6-3.77,5.19-6.67,9.14-7.38c4.65-0.83,10.53-1.24,17.98-1.24
					c7.47,0,13.12,0.41,17.25,1.26c3.94,0.8,6.34,4.26,5.83,8.4l-2.93,23.87l11.74-27.02c1.58-3.65,5.09-6.5,8.93-7.25
					c3.79-0.74,8.01-1.12,12.54-1.12c5.69,0,10.69,0.72,14.85,2.15c1.79,0.61,3.23,1.85,4.07,3.49l0.71,1.39
					c1.15,2.25,1.09,5.08-0.16,7.75L250.41,139.9c-1.78,3.84-5.69,6.7-9.72,7.12C233.46,147.77,226.68,148.15,220.52,148.15z
					 M205.98,96.13l-3.65,32.85c-0.67,6.11,0.62,10.33,3.81,12.54c2.82,1.95,7.39,2.85,14.39,2.85c6.02,0,12.68-0.38,19.77-1.11
					c2.71-0.29,5.47-2.32,6.7-4.96l48.08-103.26c0.76-1.62,0.83-3.24,0.22-4.45l-0.71-1.39c-0.39-0.77-1.06-1.34-1.94-1.64
					c-3.76-1.29-8.35-1.94-13.62-1.94c-4.28,0-8.26,0.35-11.81,1.05c-2.62,0.51-5.1,2.54-6.19,5.05L238.9,82.6l6.1-49.69
					c0.27-2.2-0.82-3.83-2.84-4.24c-3.89-0.79-9.28-1.18-16.5-1.18c-7.22,0-12.88,0.39-17.31,1.18c-2.69,0.48-5.23,2.55-6.33,5.14
					l-20.63,48.81l4.16-39.56c0.71-6.48,0.07-10.94-1.98-13.64c-3.86-5.06-13.82-5.88-27.9-1.09c-3.08,1.05-5.55,3.99-5.76,6.85
					l-6.95,94.06c-0.38,5.98,1.01,10.12,4.14,12.29c2.82,1.95,7.32,2.85,14.16,2.85c5.86,0,12.58-0.37,19.97-1.11
					c2.79-0.28,5.66-2.46,6.83-5.18L205.98,96.13z"/>
			</g>
		</g>
		<g>
			<g>
				<path class="st7" d="M349.73,146.73c-7.29,0-12.18-1.5-14.96-4.6c-2.56-2.85-3.89-7.52-4.07-14.27l-0.09-4.63
					c-0.13,0-22.75,0-22.94,0l-9.52,16.86c-1.44,2.56-4.03,4.53-6.79,5.17c-3.31,0.78-7.4,1.15-12.5,1.15
					c-5.89,0-10.49-0.71-14.07-2.16c-1.42-0.58-2.47-1.66-2.97-3.08l-0.44-1.24c-0.68-1.9-0.34-4.23,0.93-6.35l61.8-103.73
					c1.61-2.7,4.47-4.67,7.39-5.11c4.56-0.67,9.77-1.01,15.49-1.01c6.63,0,11.76,0.4,15.68,1.23c2.54,0.54,4.2,2.48,4.34,5.09
					l5.56,103.88c0.18,3.45-2.33,7.21-5.98,8.94C361.17,145.43,355.51,146.73,349.73,146.73z M330.2,88.51
					c-0.03-1.65-0.05-3.39-0.07-5.2c-0.52,0.96-1.05,1.95-1.59,2.96l-1.27,2.24H330.2z"/>
				<path class="st8" d="M349.73,148.61c-7.86,0-13.21-1.71-16.37-5.22c-2.87-3.2-4.37-8.26-4.55-15.48l-0.06-2.8h-20l-8.98,15.9
					c-1.71,3.04-4.7,5.31-8,6.08c-3.46,0.81-7.68,1.2-12.93,1.2c-6.13,0-10.97-0.75-14.79-2.3c-1.92-0.78-3.35-2.27-4.04-4.19
					l-0.44-1.24c-0.87-2.43-0.48-5.33,1.08-7.95l61.8-103.73c1.9-3.19,5.25-5.49,8.73-6.01c4.66-0.69,9.96-1.03,15.76-1.03
					c6.76,0,12.02,0.41,16.07,1.27c3.36,0.71,5.65,3.39,5.83,6.84l5.55,103.88c0.23,4.25-2.68,8.67-7.06,10.75
					C361.73,147.26,355.79,148.61,349.73,148.61z M306.56,121.34h25.9l0.13,6.48c0.17,6.27,1.34,10.54,3.59,13.04
					c2.4,2.67,6.83,3.97,13.56,3.97c5.5,0,10.89-1.23,16.03-3.67c2.94-1.39,5.05-4.46,4.91-7.13l-5.55-103.88
					c-0.1-1.76-1.13-2.99-2.85-3.35c-3.79-0.8-8.79-1.19-15.29-1.19c-5.62,0-10.74,0.33-15.21,0.99c-2.36,0.35-4.73,2-6.04,4.21
					l-61.8,103.73c-0.97,1.63-1.26,3.4-0.77,4.75l0.44,1.24c0.33,0.91,0.99,1.6,1.91,1.97c3.35,1.36,7.72,2.02,13.36,2.02
					c4.95,0,8.9-0.36,12.06-1.1c2.25-0.53,4.39-2.16,5.58-4.26L306.56,121.34z M332.12,90.4h-8.08l7.91-14.46l0.07,7.36
					c0.02,1.81,0.04,3.53,0.07,5.18L332.12,90.4z"/>
			</g>
		</g>
		<g>
			<g>
				<path class="st7" d="M397.48,146.26c-5.56,0-9.96-0.35-13.45-1.07c-3.36-0.69-5.08-3.79-4.12-7.4L408,32.98
					c0.54-2,1.84-3.92,3.63-5.33l1.37-1.08c1.74-1.38,3.81-2.17,5.76-2.21c9.04-0.2,16.54-0.36,22.5-0.46
					c6.01-0.1,10.58-0.16,13.7-0.16c6.45,0,12.23,0.91,17.18,2.7c5.21,1.88,9.4,4.78,12.47,8.62c3.07,3.85,4.99,8.65,5.69,14.26
					c0.68,5.45,0.09,11.71-1.76,18.61c-1.86,6.93-4.67,13.21-8.35,18.68c-3.76,5.58-8.27,10.36-13.39,14.19
					c-5.11,3.82-10.85,6.73-17.07,8.67c-5.96,1.85-12.22,2.8-18.6,2.8h-4.71l-6.84,25.54c-0.97,3.63-4.39,6.74-8.13,7.41
					C407.49,145.92,402.92,146.26,397.48,146.26z M435.51,78.36c1.36-0.04,2.27-0.06,2.74-0.06c2.04,0,3.17-0.38,3.66-0.6
					c0.93-0.43,1.68-0.94,2.29-1.56c0.79-0.8,1.49-1.82,2.11-3.02c0.8-1.58,1.45-3.28,1.92-5.04c0.44-1.66,0.69-3.3,0.74-4.89
					c0.04-1.29-0.13-2.41-0.48-3.32c-0.25-0.64-0.64-1.11-1.24-1.5c-0.53-0.34-1.34-0.52-2.42-0.52h-3.81L435.51,78.36z"/>
				<path class="st8" d="M397.48,148.15c-5.68,0-10.2-0.36-13.82-1.11c-2.05-0.42-3.75-1.58-4.79-3.26
					c-1.13-1.83-1.4-4.13-0.78-6.48l28.08-104.81c0.65-2.4,2.17-4.65,4.29-6.32l1.37-1.08c2.07-1.64,4.52-2.57,6.88-2.62
					c9.04-0.2,16.54-0.36,22.51-0.46c6.03-0.1,10.61-0.16,13.73-0.16c6.67,0,12.66,0.94,17.82,2.81c5.54,2,10.01,5.1,13.3,9.21
					c3.29,4.13,5.34,9.24,6.09,15.2c0.71,5.7,0.1,12.2-1.81,19.33c-1.92,7.14-4.81,13.61-8.61,19.25
					c-3.88,5.76-8.54,10.69-13.83,14.65c-5.28,3.94-11.21,6.96-17.64,8.96c-6.14,1.91-12.59,2.88-19.16,2.88h-3.26l-6.47,24.14
					c-1.17,4.36-5.13,7.98-9.62,8.78C407.71,147.79,403.03,148.15,397.48,148.15z M454.97,25.62c-3.11,0-7.67,0.05-13.67,0.16
					c-5.96,0.1-13.46,0.26-22.49,0.46c-1.54,0.03-3.23,0.69-4.64,1.81l-1.37,1.08c-1.46,1.16-2.55,2.74-2.98,4.34l-28.08,104.81
					c-0.36,1.34-0.24,2.59,0.34,3.52c0.49,0.8,1.3,1.33,2.34,1.55c3.37,0.69,7.64,1.03,13.07,1.03c5.33,0,9.79-0.34,13.64-1.03
					c3.01-0.54,5.86-3.14,6.64-6.04l7.22-26.94h6.15c6.2,0,12.27-0.91,18.04-2.71c6.02-1.87,11.57-4.69,16.5-8.38
					c4.95-3.7,9.32-8.32,12.96-13.73c3.57-5.29,6.29-11.39,8.09-18.12c1.79-6.65,2.36-12.67,1.71-17.88
					c-0.66-5.26-2.44-9.74-5.29-13.32c-2.85-3.56-6.76-6.26-11.64-8.02C466.76,26.49,461.19,25.62,454.97,25.62z M433.03,80.32
					l6.53-24.37h5.26c1.47,0,2.6,0.27,3.45,0.83c0.93,0.6,1.57,1.39,1.97,2.39c0.45,1.15,0.66,2.51,0.61,4.06
					c-0.05,1.74-0.32,3.53-0.8,5.33c-0.5,1.88-1.2,3.7-2.06,5.4c-0.7,1.37-1.52,2.55-2.44,3.49c-0.77,0.79-1.7,1.43-2.85,1.96
					c-0.77,0.36-2.17,0.78-4.45,0.78c-0.45,0-1.34,0.02-2.68,0.06L433.03,80.32z M442.46,59.73l-4.48,16.7c0.1,0,0.19,0,0.26,0
					c1.79,0,2.65-0.33,2.87-0.43c0.72-0.33,1.28-0.71,1.73-1.17c0.66-0.67,1.25-1.53,1.77-2.56c0.75-1.47,1.35-3.04,1.78-4.68
					c0.41-1.51,0.63-3.01,0.67-4.46c0.03-1.03-0.09-1.92-0.35-2.58c-0.1-0.27-0.25-0.43-0.52-0.61c-0.02-0.01-0.34-0.21-1.39-0.21
					H442.46z"/>
			</g>
		</g>
	</g>
	<g>
		<g>
			<g>
				<path class="st7" d="M521.05,146.26c-5.34,0-9.76-0.35-13.54-1.06c-3.56-0.67-6.14-3.79-6.14-7.41V60.43l-2.23,0.03h-16.04
					c-3.58,0-6.67-2.52-7.39-6.03c-0.72-3.5-1.08-7.49-1.08-11.87c0-4.38,0.36-8.37,1.08-11.87c0.72-3.51,3.81-6.03,7.39-6.03h76.37
					c3.32,0,6.25,2.17,7.22,5.34c1.04,3.41,1.57,7.45,1.57,12.02c0,7.69-3.16,11.93-5.81,14.13c-3.49,2.9-8.3,4.31-14.72,4.31h-4.48
					l-2.24-0.03l0.05,3.65v73.71c0,3.66-2.62,6.79-6.22,7.43C530.91,145.91,526.28,146.26,521.05,146.26z"/>
				<path class="st8" d="M521.05,148.15c-5.46,0-10-0.36-13.88-1.09c-4.45-0.84-7.68-4.74-7.68-9.27V62.35l-0.32,0.01H483.1
					c-4.46,0-8.34-3.17-9.24-7.53c-0.74-3.63-1.12-7.75-1.12-12.25c0-4.5,0.38-8.62,1.12-12.25c0.9-4.37,4.79-7.54,9.24-7.54h76.37
					c4.18,0,7.8,2.68,9.02,6.68c1.09,3.59,1.65,7.81,1.65,12.57c0,8.42-3.53,13.12-6.5,15.58c-3.84,3.2-9.05,4.75-15.92,4.75
					l-4.81-0.01l0.03,1.71v73.73c0,4.58-3.27,8.48-7.78,9.28C531.13,147.79,526.39,148.15,521.05,148.15z M503.25,58.52v79.27
					c0,2.72,1.94,5.05,4.61,5.56c3.65,0.69,7.97,1.03,13.18,1.03c5.12,0,9.64-0.34,13.44-1.01c2.7-0.48,4.67-2.83,4.67-5.57
					l-0.08-79.27l8.64,0.06c5.96,0,10.37-1.27,13.51-3.88c2.34-1.95,5.14-5.73,5.14-12.68c0-4.38-0.5-8.24-1.48-11.47
					c-0.73-2.4-2.91-4.01-5.41-4.01H483.1c-2.67,0-5.01,1.9-5.54,4.52c-0.69,3.38-1.04,7.25-1.04,11.49c0,4.25,0.35,8.12,1.04,11.49
					c0.54,2.62,2.87,4.52,5.54,4.52L503.25,58.52z"/>
			</g>
		</g>
		<g>
			<g>
				<path class="st7" d="M652.54,146.26c-5.44,0-9.92-0.35-13.69-1.06c-3.56-0.67-6.14-3.79-6.14-7.41v-32.77l0.05-3.74h-18.25
					l0.05,3.64v32.87c0,3.61-2.56,6.72-6.1,7.4c-3.69,0.72-8.18,1.07-13.73,1.07c-5.56,0-10.05-0.35-13.73-1.07
					c-3.54-0.69-6.1-3.79-6.1-7.4V32.21c0-3.61,2.56-6.72,6.1-7.41c3.69-0.72,8.18-1.06,13.73-1.06c5.55,0,10.04,0.35,13.73,1.06
					c3.55,0.69,6.11,3.79,6.11,7.41v29.53l-0.05,3.74h18.25l-0.05-3.64V32.21c0-3.61,2.56-6.72,6.1-7.41
					c3.69-0.72,8.2-1.06,13.81-1.06c5.62,0,10.1,0.35,13.7,1.07c3.52,0.71,6.06,3.8,6.06,7.4v105.58c0,3.63-2.58,6.74-6.14,7.41
					C662.45,145.92,657.97,146.26,652.54,146.26z"/>
				<path class="st8" d="M652.54,148.15c-5.56,0-10.15-0.36-14.04-1.09c-4.45-0.84-7.68-4.74-7.68-9.27l0.02-34.63h-14.42l0.02,1.73
					v32.9c0,4.5-3.21,8.4-7.63,9.26c-3.81,0.74-8.42,1.1-14.09,1.1c-5.68,0-10.29-0.36-14.09-1.1c-4.42-0.86-7.63-4.75-7.63-9.26
					V32.21c0-4.51,3.21-8.4,7.63-9.26c3.81-0.74,8.42-1.1,14.09-1.1c5.67,0,10.28,0.36,14.09,1.1c4.42,0.86,7.63,4.75,7.63,9.26
					l-0.02,31.38h14.42l-0.02-1.73V32.21c0-4.51,3.21-8.4,7.63-9.26c3.81-0.74,8.44-1.1,14.17-1.1c5.74,0,10.34,0.36,14.07,1.11
					c4.39,0.88,7.57,4.77,7.57,9.25v105.58c0,4.53-3.23,8.43-7.68,9.27C662.69,147.79,658.09,148.15,652.54,148.15z M612.6,99.39
					h22.07l-0.07,5.65v32.75c0,2.72,1.94,5.06,4.6,5.56c3.66,0.69,8.02,1.03,13.34,1.03c5.32,0,9.68-0.34,13.34-1.03
					c2.67-0.5,4.61-2.84,4.61-5.56V32.21c0-2.69-1.91-5.02-4.54-5.55c-3.48-0.7-7.84-1.04-13.33-1.04c-5.48,0-9.88,0.34-13.45,1.03
					c-2.65,0.52-4.58,2.85-4.58,5.55l0.07,35.16H612.6l0.07-5.65v-29.5c0-2.7-1.93-5.04-4.58-5.55c-3.57-0.69-7.94-1.03-13.37-1.03
					c-5.43,0-9.8,0.34-13.37,1.03c-2.65,0.52-4.58,2.85-4.58,5.55v105.58c0,2.7,1.92,5.04,4.58,5.55c3.57,0.69,7.94,1.03,13.37,1.03
					c5.43,0,9.8-0.34,13.37-1.03c2.65-0.52,4.58-2.85,4.58-5.55L612.6,99.39z"/>
			</g>
		</g>
		<g>
			<g>
				<path class="st7" d="M705.11,146.26c-5.59,0-10.1-0.35-13.8-1.07c-3.55-0.69-6.11-3.79-6.11-7.41V32.21
					c0-3.61,2.56-6.72,6.11-7.41c3.7-0.71,8.21-1.06,13.8-1.06c5.56,0,10.11,0.34,13.91,1.06c3.57,0.67,6.16,3.78,6.16,7.42v105.58
					c0,3.63-2.59,6.74-6.15,7.42C715.23,145.92,710.68,146.26,705.11,146.26z"/>
				<path class="st8" d="M705.11,148.15c-5.72,0-10.35-0.36-14.16-1.1c-4.42-0.86-7.63-4.75-7.63-9.26V32.21
					c0-4.51,3.21-8.4,7.64-9.26c3.82-0.74,8.45-1.1,14.16-1.1c5.68,0,10.35,0.36,14.25,1.09c4.46,0.83,7.7,4.73,7.7,9.27v105.58
					c0,4.53-3.23,8.43-7.69,9.27C715.46,147.79,710.8,148.15,705.11,148.15z M705.11,25.62c-5.46,0-9.86,0.34-13.44,1.03
					c-2.66,0.52-4.58,2.85-4.58,5.56v105.58c0,2.7,1.93,5.04,4.58,5.55c3.58,0.69,7.98,1.03,13.45,1.03c5.45,0,9.88-0.34,13.56-1.02
					c2.67-0.5,4.62-2.84,4.62-5.56V32.21c0-2.72-1.94-5.06-4.62-5.56C714.99,25.96,710.56,25.62,705.11,25.62z"/>
			</g>
		</g>
		<g>
			<g>
				<path class="st7" d="M812.81,146.26c-5.95,0-11.33-0.34-15.99-1c-2.58-0.37-4.79-2.05-5.84-4.44l-17.26-39.37
					c0.02,1.86,0.03,3.71,0.03,5.57v30.76c0,3.61-2.56,6.72-6.11,7.41c-3.7,0.72-7.97,1.07-13.03,1.07c-5.08,0-9.31-0.35-12.92-1.08
					c-3.53-0.71-6.06-3.8-6.06-7.4V32.67c0-3.5,2.4-6.54,5.81-7.34c4.47-1.06,9.81-1.59,15.88-1.59c5.84,0,11.17,0.34,15.83,1
					c2.6,0.37,4.81,2.06,5.86,4.46l17.87,41.15c-0.02-1.78-0.02-3.58-0.02-5.37V46.12c0-7.41,1.73-12.86,5.28-16.66
					c3.64-3.9,9.03-5.87,16.03-5.87h8.19c2,0,3.92,0.79,5.33,2.2l1.08,1.08c1.42,1.42,2.21,3.34,2.21,5.34v105.12
					c0,3.53-2.45,6.58-5.89,7.36C824.43,145.73,818.95,146.26,812.81,146.26z"/>
				<path class="st8" d="M812.81,148.15c-6.04,0-11.51-0.34-16.26-1.02c-3.25-0.47-5.98-2.54-7.3-5.55l-13.62-31.07v27.28
					c0,4.51-3.21,8.4-7.64,9.26c-3.82,0.74-8.2,1.1-13.38,1.1c-5.21,0-9.56-0.36-13.29-1.11c-4.39-0.88-7.58-4.77-7.58-9.25V32.67
					c0-4.39,2.99-8.17,7.26-9.18c4.61-1.09,10.1-1.64,16.32-1.64c5.93,0,11.35,0.34,16.09,1.02c3.22,0.46,6.03,2.6,7.32,5.58
					l14.23,32.76v-15.1c0-7.91,1.89-13.78,5.79-17.95c4-4.3,9.86-6.47,17.4-6.47h8.19c2.52,0,4.88,0.98,6.66,2.76l1.08,1.08
					c1.78,1.78,2.77,4.15,2.77,6.67v105.12c0,4.44-3.02,8.22-7.36,9.2C824.71,147.61,819.09,148.15,812.81,148.15z M771.76,92.29
					l20.95,47.77c0.79,1.81,2.43,3.05,4.38,3.33c4.56,0.65,9.85,0.99,15.72,0.99c6,0,11.33-0.52,15.85-1.53
					c2.6-0.59,4.41-2.85,4.41-5.52V32.21c0-1.51-0.59-2.94-1.66-4l-1.08-1.08c-1.07-1.07-2.49-1.65-4-1.65h-8.19
					c-6.45,0-11.38,1.77-14.65,5.28c-3.21,3.44-4.77,8.47-4.77,15.38v18.86c0,1.79,0.01,3.58,0.03,5.35l0.1,9.32l-21.58-49.7
					c-0.77-1.79-2.46-3.07-4.39-3.35c-4.58-0.65-9.81-0.98-15.56-0.98c-5.92,0-11.12,0.52-15.45,1.54
					c-2.57,0.61-4.36,2.87-4.36,5.51v105.12c0,2.69,1.91,5.02,4.55,5.55c3.49,0.7,7.6,1.04,12.55,1.04c4.94,0,9.09-0.34,12.66-1.03
					c2.66-0.52,4.59-2.85,4.59-5.55v-30.76c0-1.85-0.01-3.71-0.03-5.56L771.76,92.29z"/>
			</g>
		</g>
		<g>
			<g>
				<path class="st7" d="M897.38,147.65c-8.42,0-16.06-1.46-22.7-4.33c-6.78-2.93-12.56-7.23-17.18-12.76
					c-4.52-5.43-7.95-12.09-10.19-19.81c-2.15-7.39-3.23-15.83-3.23-25.06c0-10.29,1.55-19.46,4.62-27.26
					c3.09-7.88,7.34-14.59,12.63-19.94c5.31-5.37,11.53-9.47,18.48-12.16c6.82-2.65,14.03-3.99,21.43-3.99
					c14.78,0,28.83,4.14,41.75,12.3c2.33,1.47,3.67,4.1,3.5,6.85c-0.15,2.43-0.71,4.89-1.67,7.32c-0.84,2.12-1.87,4.18-3.06,6.13
					c-1.29,2.1-2.8,4.02-4.5,5.72c-1.61,1.61-3.28,3.02-4.99,4.19c-1.29,0.89-2.79,1.34-4.29,1.34c-1.43,0-2.86-0.41-4.11-1.22
					c-7.37-4.8-14.52-7.13-21.86-7.13c-5.28,0-17.65,0-17.65,27.7c0,27.55,12.8,27.55,18.27,27.55c2.04,0,4.03-0.08,5.9-0.25
					c0,0,0.01-5.94,0.02-6.92c-6.52-0.02-11.24-1.57-14.43-4.76c-3.16-3.16-4.76-7.63-4.76-13.3c0-3.85,0.69-7.99,2.05-12.31
					c0.98-3.13,3.87-5.26,7.15-5.28l24.27-0.15c15.03,0,23.98,8.6,23.98,23v40.66c0,3.29-2.13,6.2-5.26,7.19
					C927.58,145.4,912.72,147.65,897.38,147.65z"/>
				<path class="st8" d="M897.39,149.54c-8.68,0-16.58-1.51-23.45-4.48c-7.06-3.05-13.07-7.52-17.88-13.28
					c-4.69-5.64-8.24-12.53-10.55-20.5c-2.2-7.57-3.31-16.18-3.31-25.58c0-10.52,1.6-19.93,4.75-27.95
					c3.19-8.12,7.58-15.04,13.05-20.58c5.5-5.56,11.94-9.8,19.14-12.59c7.04-2.73,14.48-4.12,22.11-4.12
					c15.14,0,29.53,4.23,42.75,12.59c2.92,1.84,4.59,5.12,4.38,8.56c-0.16,2.62-0.77,5.28-1.79,7.89c-0.88,2.22-1.96,4.38-3.21,6.42
					c-1.36,2.23-2.97,4.27-4.78,6.07c-1.68,1.68-3.45,3.17-5.25,4.41c-3.08,2.14-7.36,2.2-10.51,0.15
					c-7.06-4.59-13.87-6.82-20.83-6.82c-5.12,0-15.77,0-15.77,25.82c0,25.66,11.07,25.66,16.39,25.66c1.37,0,2.72-0.04,4.02-0.12
					c0-1.01,0-2.28,0.01-3.33c-6.09-0.3-10.63-2.03-13.87-5.27c-3.53-3.53-5.31-8.45-5.31-14.63c0-4.04,0.72-8.37,2.14-12.88
					c1.23-3.92,4.82-6.58,8.93-6.6l24.27-0.15c15.97,0,25.87,9.54,25.87,24.89v40.66c0,4.13-2.64,7.74-6.58,8.99
					C927.97,147.26,912.92,149.54,897.39,149.54z M901.25,24.23c-7.17,0-14.15,1.3-20.75,3.86c-6.7,2.6-12.7,6.55-17.82,11.73
					c-5.11,5.16-9.22,11.66-12.22,19.3c-2.98,7.58-4.49,16.52-4.49,26.57c0,9.05,1.06,17.3,3.16,24.53
					c2.16,7.46,5.47,13.9,9.82,19.13c4.42,5.3,9.97,9.42,16.48,12.24c6.41,2.77,13.79,4.18,21.96,4.18c15.14,0,29.82-2.22,43.6-6.6
					c2.36-0.75,3.95-2.92,3.95-5.39V93.12c0-13.42-8.05-21.12-22.09-21.12l-24.26,0.15c-2.47,0.01-4.62,1.61-5.36,3.96
					c-1.3,4.14-1.96,8.09-1.96,11.75c0,5.14,1.41,9.17,4.21,11.96c2.82,2.82,7.1,4.19,13.1,4.21l1.9,0.01l-0.02,1.9
					c-0.01,0.97-0.01,6.9-0.01,6.9v1.72l-1.72,0.15c-1.93,0.17-3.97,0.26-6.07,0.26c-5.51,0-20.16,0-20.16-29.43
					c0-29.59,14.2-29.59,19.54-29.59c7.71,0,15.19,2.43,22.88,7.43c1.89,1.23,4.46,1.19,6.3-0.09c1.61-1.11,3.2-2.45,4.73-3.97
					c1.6-1.6,3.02-3.4,4.23-5.37c1.13-1.85,2.12-3.82,2.92-5.83c0.88-2.24,1.4-4.51,1.54-6.74c0.13-2.06-0.88-4.03-2.62-5.14
					C929.38,28.27,915.67,24.23,901.25,24.23z"/>
			</g>
		</g>
	</g>
</g>
</svg>
