<?xml version="1.0" encoding="utf-8"?>
<!-- Generator: Adobe Illustrator 23.0.6, SVG Export Plug-In . SVG Version: 6.00 Build 0)  -->
<svg version="1.1" id="Layer_1" xmlns="http://www.w3.org/2000/svg" xmlns:xlink="http://www.w3.org/1999/xlink" x="0px" y="0px"
	 viewBox="0 0 200 30" style="enable-background:new 0 0 200 30;" xml:space="preserve">
<style type="text/css">
	.st0{fill:none;stroke:#33FF99;stroke-miterlimit:10;}
	.st1{fill:#FFFFFF;stroke:#27F09F;stroke-miterlimit:10;}
	.st2{fill:#FFFFFF;stroke:#000000;stroke-miterlimit:10;}
	.st3{fill:#27F09F;stroke:#FFFFFF;stroke-miterlimit:10;}
	.st4{stroke:#FFFFFF;stroke-miterlimit:10;}
	.st5{stroke:#27F09F;stroke-miterlimit:10;}
	.st6{fill:#27F09F;stroke:#000000;stroke-miterlimit:10;}
	.st7{fill:#FFFFFF;}
	.st8{fill:#5E626A;}
</style>
<g>
	<g>
		<g>
			<g>
				<path class="st7" d="M9.85,28.42c-3.17,0-5.98-0.91-8.35-2.7c-0.43-0.32-0.56-0.91-0.34-1.52c0.34-0.94,0.88-1.88,1.61-2.8
					c0.72-0.9,1.5-1.65,2.34-2.25c0.37-0.26,0.79-0.4,1.17-0.4c0.29,0,0.56,0.08,0.78,0.24c1.75,1.27,3.56,1.92,5.37,1.92
					c0.73,0,0.95-0.17,0.95-0.17c0.13-0.1,0.21-0.19,0.27-0.4c0.11-0.41-0.4-0.75-0.85-0.96l-3.46-1.65
					C7.78,16.94,6.67,15.96,6,14.82c-0.73-1.26-0.85-2.84-0.35-4.71c0.34-1.26,0.91-2.43,1.71-3.49c0.79-1.04,1.75-1.96,2.87-2.72
					c1.09-0.74,2.31-1.33,3.62-1.73c1.28-0.4,2.65-0.6,4.06-0.6c2.71,0,5.29,0.69,7.66,2.06c0.5,0.29,0.69,0.9,0.47,1.55
					c-0.71,2.14-1.95,3.85-3.7,5.08c-0.37,0.26-0.79,0.4-1.17,0.4c-0.24,0-0.46-0.05-0.66-0.16c-1.76-0.97-3.4-1.46-4.87-1.46
					c-0.52,0-0.84,0.1-0.95,0.18c-0.11,0.08-0.16,0.14-0.17,0.15c0,0,0.06,0.27,0.79,0.6l3.54,1.7c1.72,0.82,2.91,1.9,3.55,3.23
					c0.67,1.39,0.76,3,0.28,4.81c-0.34,1.26-0.89,2.43-1.63,3.49c-0.76,1.08-1.73,2.03-2.86,2.82c-1.11,0.77-2.38,1.37-3.8,1.78
					C13.01,28.22,11.49,28.42,9.85,28.42z"/>
				<path class="st8" d="M9.85,28.83c-3.26,0-6.15-0.94-8.59-2.78c-0.57-0.43-0.76-1.2-0.48-1.98c0.35-0.98,0.92-1.96,1.68-2.91
					c0.74-0.93,1.55-1.71,2.42-2.32c0.78-0.55,1.79-0.62,2.42-0.16c1.68,1.22,3.41,1.84,5.13,1.84c0.49,0,0.69-0.09,0.73-0.1
					c0.06-0.05,0.08-0.08,0.1-0.17c0.01-0.04-0.12-0.25-0.63-0.5l-3.46-1.65c-1.63-0.83-2.8-1.86-3.51-3.07
					c-0.79-1.35-0.92-3.04-0.39-5.01C5.61,8.7,6.21,7.48,7.04,6.38C7.85,5.3,8.85,4.36,10,3.57c1.12-0.77,2.38-1.37,3.73-1.78
					c1.32-0.41,2.73-0.62,4.18-0.62c2.79,0,5.43,0.71,7.86,2.11c0.67,0.39,0.93,1.2,0.66,2.03c-0.74,2.22-2.03,4-3.85,5.29
					c-0.71,0.51-1.63,0.61-2.26,0.27c-1.7-0.94-3.27-1.41-4.67-1.41c-0.17,0-0.31,0.01-0.42,0.03c0.07,0.04,0.15,0.08,0.25,0.13
					l3.55,1.7c1.8,0.86,3.06,2.01,3.74,3.42c0.71,1.47,0.81,3.19,0.3,5.09c-0.35,1.3-0.92,2.52-1.69,3.62
					c-0.79,1.13-1.79,2.11-2.96,2.92c-1.14,0.79-2.46,1.41-3.91,1.84C13.09,28.62,11.52,28.83,9.85,28.83z M6.28,19.17
					c-0.31,0-0.64,0.12-0.94,0.33c-0.81,0.57-1.57,1.3-2.26,2.17c-0.7,0.88-1.22,1.78-1.55,2.68c-0.16,0.44-0.08,0.84,0.21,1.06
					c2.3,1.74,5.03,2.62,8.11,2.62c1.6,0,3.08-0.2,4.42-0.59c1.37-0.4,2.61-0.99,3.68-1.73c1.1-0.76,2.02-1.67,2.76-2.72
					c0.72-1.02,1.25-2.16,1.57-3.37c0.46-1.71,0.38-3.24-0.25-4.53c-0.6-1.24-1.73-2.27-3.36-3.04l-3.54-1.7
					c-0.91-0.41-1.01-0.81-1.02-0.95l0-0.12l0.06-0.1c0.06-0.1,0.18-0.2,0.28-0.27c0.23-0.16,0.66-0.26,1.19-0.26
					c1.54,0,3.24,0.51,5.06,1.51c0.36,0.2,0.94,0.11,1.4-0.22c1.67-1.19,2.87-2.83,3.55-4.88c0.16-0.47,0.04-0.88-0.29-1.07
					c-2.3-1.33-4.81-2-7.45-2c-1.37,0-2.69,0.2-3.94,0.58c-1.27,0.39-2.45,0.96-3.51,1.68C9.38,4.98,8.45,5.86,7.69,6.87
					c-0.77,1.02-1.32,2.14-1.64,3.35c-0.47,1.76-0.37,3.24,0.31,4.4c0.63,1.07,1.69,2,3.17,2.75l3.45,1.65
					c1.06,0.51,1.16,1.06,1.06,1.43c-0.09,0.33-0.25,0.49-0.41,0.62c-0.01,0.01-0.29,0.25-1.2,0.25c-1.9,0-3.78-0.67-5.61-1.99
					C6.67,19.22,6.49,19.17,6.28,19.17z"/>
			</g>
		</g>
		<g>
			<g>
				<path class="st7" d="M43.33,28.13c-1.58,0-2.64-0.22-3.31-0.68c-0.82-0.56-1.15-1.6-0.99-3.06l0.48-4.32l-2.77,6.47
					c-0.31,0.72-1.05,1.28-1.79,1.35c-1.6,0.16-3.05,0.24-4.32,0.24c-1.55,0-2.59-0.22-3.26-0.68c-0.8-0.55-1.15-1.56-1.06-2.99
					L27.8,4.3c0.06-0.77,0.69-1.54,1.51-1.82c1.38-0.47,2.55-0.7,3.57-0.7c1.36,0,2.32,0.36,2.86,1.07c0.5,0.67,0.67,1.72,0.5,3.21
					l-0.61,5.77l3.36-7.96c0.29-0.68,0.95-1.21,1.66-1.34c0.97-0.17,2.21-0.26,3.78-0.26c1.57,0,2.75,0.09,3.62,0.26
					c0.64,0.13,1.01,0.67,0.93,1.35l-0.97,7.88l3.63-8.34c0.29-0.66,0.93-1.18,1.62-1.32c0.79-0.15,1.66-0.23,2.61-0.23
					c1.17,0,2.2,0.15,3.05,0.44c0.29,0.1,0.51,0.29,0.64,0.55l0.15,0.3c0.19,0.37,0.17,0.85-0.04,1.31l-10.3,22.13
					c-0.32,0.69-1.04,1.22-1.76,1.29C46.08,28.05,44.64,28.13,43.33,28.13z"/>
				<path class="st8" d="M43.33,28.53c-1.67,0-2.8-0.24-3.54-0.75c-0.95-0.66-1.34-1.81-1.16-3.44l0.18-1.6l-1.69,3.96
					c-0.37,0.86-1.22,1.51-2.13,1.6c-1.61,0.16-3.08,0.24-4.36,0.24c-1.64,0-2.75-0.24-3.49-0.76c-0.92-0.64-1.34-1.76-1.23-3.35
					l1.49-20.16c0.07-0.93,0.82-1.85,1.78-2.17c3.41-1.16,5.82-0.89,6.88,0.51c0.57,0.75,0.76,1.9,0.58,3.5l-0.32,3.07l2.3-5.45
					c0.34-0.81,1.11-1.43,1.96-1.58c1-0.18,2.26-0.27,3.85-0.27c1.6,0,2.81,0.09,3.7,0.27c0.84,0.17,1.36,0.91,1.25,1.8l-0.63,5.11
					l2.52-5.79c0.34-0.78,1.09-1.39,1.91-1.55c0.81-0.16,1.72-0.24,2.69-0.24c1.22,0,2.29,0.15,3.18,0.46
					c0.38,0.13,0.69,0.4,0.87,0.75l0.15,0.3c0.25,0.48,0.23,1.09-0.03,1.66l-10.3,22.12c-0.38,0.82-1.22,1.43-2.08,1.53
					C46.11,28.45,44.65,28.53,43.33,28.53z M40.22,17.38l-0.78,7.04c-0.14,1.31,0.13,2.21,0.82,2.69c0.6,0.42,1.58,0.61,3.08,0.61
					c1.29,0,2.72-0.08,4.24-0.24c0.58-0.06,1.17-0.5,1.43-1.06L59.31,4.3c0.16-0.35,0.18-0.69,0.05-0.95l-0.15-0.3
					c-0.08-0.17-0.23-0.29-0.42-0.35C57.98,2.42,57,2.28,55.87,2.28c-0.92,0-1.77,0.08-2.53,0.22c-0.56,0.11-1.09,0.54-1.33,1.08
					l-4.74,10.9l1.31-10.65c0.06-0.47-0.18-0.82-0.61-0.91c-0.83-0.17-1.99-0.25-3.54-0.25c-1.55,0-2.76,0.08-3.71,0.25
					c-0.58,0.1-1.12,0.55-1.36,1.1l-4.42,10.46l0.89-8.48c0.15-1.39,0.01-2.34-0.42-2.92C34.59,2,32.45,1.83,29.43,2.86
					c-0.66,0.22-1.19,0.86-1.23,1.47l-1.49,20.15c-0.08,1.28,0.22,2.17,0.89,2.63c0.6,0.42,1.57,0.61,3.03,0.61
					c1.26,0,2.7-0.08,4.28-0.24c0.6-0.06,1.21-0.53,1.46-1.11L40.22,17.38z"/>
			</g>
		</g>
		<g>
			<g>
				<path class="st7" d="M71.02,28.23c-1.56,0-2.61-0.32-3.21-0.98c-0.55-0.61-0.83-1.61-0.87-3.06l-0.02-0.99
					c-0.03,0-4.87,0-4.92,0l-2.04,3.61c-0.31,0.55-0.86,0.97-1.45,1.11c-0.71,0.17-1.59,0.25-2.68,0.25c-1.26,0-2.25-0.15-3.02-0.46
					c-0.3-0.12-0.53-0.36-0.64-0.66l-0.09-0.26c-0.15-0.41-0.07-0.91,0.2-1.36L65.53,3.19c0.34-0.58,0.96-1,1.58-1.09
					c0.98-0.14,2.09-0.22,3.32-0.22c1.42,0,2.52,0.09,3.36,0.26c0.54,0.11,0.9,0.53,0.93,1.09l1.19,22.26
					c0.04,0.74-0.5,1.54-1.28,1.92C73.47,27.95,72.26,28.23,71.02,28.23z M66.83,15.75c-0.01-0.35-0.01-0.73-0.01-1.11
					c-0.11,0.21-0.22,0.42-0.34,0.63l-0.27,0.48H66.83z"/>
				<path class="st8" d="M71.02,28.63c-1.68,0-2.83-0.37-3.51-1.12c-0.62-0.69-0.94-1.77-0.98-3.32l-0.01-0.6h-4.28L60.32,27
					c-0.37,0.65-1.01,1.14-1.71,1.3c-0.74,0.17-1.65,0.26-2.77,0.26c-1.31,0-2.35-0.16-3.17-0.49c-0.41-0.17-0.72-0.49-0.87-0.9
					l-0.09-0.26c-0.19-0.52-0.1-1.14,0.23-1.7L65.18,2.98c0.41-0.68,1.12-1.18,1.87-1.29c1-0.15,2.13-0.22,3.38-0.22
					c1.45,0,2.58,0.09,3.44,0.27c0.72,0.15,1.21,0.73,1.25,1.46l1.19,22.26c0.05,0.91-0.57,1.86-1.51,2.3
					C73.59,28.34,72.32,28.63,71.02,28.63z M61.77,22.79h5.55l0.03,1.39c0.04,1.34,0.29,2.26,0.77,2.79
					c0.51,0.57,1.46,0.85,2.91,0.85c1.18,0,2.33-0.26,3.43-0.79c0.63-0.3,1.08-0.96,1.05-1.53L74.31,3.25
					c-0.02-0.38-0.24-0.64-0.61-0.72c-0.81-0.17-1.88-0.25-3.28-0.25c-1.2,0-2.3,0.07-3.26,0.21c-0.51,0.07-1.01,0.43-1.3,0.9
					L52.63,25.62c-0.21,0.35-0.27,0.73-0.17,1.02l0.09,0.27c0.07,0.2,0.21,0.34,0.41,0.42c0.72,0.29,1.66,0.43,2.86,0.43
					c1.06,0,1.91-0.08,2.58-0.24c0.48-0.11,0.94-0.46,1.19-0.91L61.77,22.79z M67.24,16.16h-1.73l1.69-3.1l0.02,1.58
					c0,0.39,0.01,0.76,0.01,1.11L67.24,16.16z"/>
			</g>
		</g>
		<g>
			<g>
				<path class="st7" d="M81.25,28.13c-1.19,0-2.13-0.07-2.88-0.23c-0.72-0.15-1.09-0.81-0.88-1.59L83.5,3.85
					c0.11-0.43,0.39-0.84,0.78-1.14l0.29-0.23c0.37-0.29,0.82-0.46,1.23-0.47c1.94-0.04,3.54-0.08,4.82-0.1
					c1.29-0.02,2.27-0.03,2.94-0.03c1.38,0,2.62,0.19,3.68,0.58c1.12,0.4,2.01,1.02,2.67,1.85c0.66,0.82,1.07,1.85,1.22,3.06
					c0.15,1.17,0.02,2.51-0.38,3.99c-0.4,1.48-1,2.83-1.79,4c-0.81,1.2-1.77,2.22-2.87,3.04c-1.09,0.82-2.32,1.44-3.66,1.86
					c-1.28,0.4-2.62,0.6-3.99,0.6h-1.01l-1.47,5.47c-0.21,0.78-0.94,1.44-1.74,1.59C83.39,28.05,82.41,28.13,81.25,28.13z
					 M89.4,13.58c0.29-0.01,0.49-0.01,0.59-0.01c0.44,0,0.68-0.08,0.78-0.13c0.2-0.09,0.36-0.2,0.49-0.34
					c0.17-0.17,0.32-0.39,0.45-0.65c0.17-0.34,0.31-0.7,0.41-1.08c0.1-0.36,0.15-0.71,0.16-1.05c0.01-0.28-0.03-0.52-0.1-0.71
					c-0.05-0.14-0.14-0.24-0.27-0.32c-0.11-0.07-0.29-0.11-0.52-0.11h-0.82L89.4,13.58z"/>
				<path class="st8" d="M81.25,28.53c-1.22,0-2.19-0.08-2.96-0.24c-0.44-0.09-0.8-0.34-1.03-0.7c-0.24-0.39-0.3-0.88-0.17-1.39
					l6.02-22.46c0.14-0.51,0.46-1,0.92-1.35l0.29-0.23c0.44-0.35,0.97-0.55,1.48-0.56c1.94-0.04,3.54-0.08,4.82-0.1
					c1.29-0.02,2.27-0.03,2.94-0.03c1.43,0,2.71,0.2,3.82,0.6c1.19,0.43,2.15,1.09,2.85,1.97c0.71,0.88,1.14,1.98,1.3,3.26
					c0.15,1.22,0.02,2.61-0.39,4.14c-0.41,1.53-1.03,2.92-1.84,4.12c-0.83,1.23-1.83,2.29-2.96,3.14c-1.13,0.84-2.4,1.49-3.78,1.92
					c-1.32,0.41-2.7,0.62-4.11,0.62h-0.7l-1.39,5.17c-0.25,0.93-1.1,1.71-2.06,1.88C83.44,28.45,82.44,28.53,81.25,28.53z
					 M93.57,2.28c-0.67,0-1.64,0.01-2.93,0.03c-1.28,0.02-2.88,0.06-4.82,0.1c-0.33,0.01-0.69,0.15-0.99,0.39l-0.29,0.23
					c-0.31,0.25-0.55,0.59-0.64,0.93l-6.02,22.46c-0.08,0.29-0.05,0.55,0.07,0.75c0.11,0.17,0.28,0.29,0.5,0.33
					c0.72,0.15,1.64,0.22,2.8,0.22c1.14,0,2.1-0.07,2.92-0.22c0.64-0.12,1.26-0.67,1.42-1.3l1.55-5.77h1.32
					c1.33,0,2.63-0.2,3.87-0.58c1.29-0.4,2.48-1.01,3.53-1.79c1.06-0.79,2-1.78,2.78-2.94c0.76-1.13,1.35-2.44,1.73-3.88
					c0.38-1.43,0.51-2.71,0.37-3.83c-0.14-1.13-0.52-2.09-1.13-2.85c-0.61-0.76-1.45-1.34-2.49-1.72
					C96.09,2.46,94.9,2.28,93.57,2.28z M88.87,14l1.4-5.22h1.13c0.31,0,0.56,0.06,0.74,0.18c0.2,0.13,0.34,0.3,0.42,0.51
					c0.1,0.25,0.14,0.54,0.13,0.87c-0.01,0.37-0.07,0.76-0.17,1.14c-0.11,0.4-0.26,0.79-0.44,1.16c-0.15,0.29-0.33,0.55-0.52,0.75
					c-0.16,0.17-0.36,0.31-0.61,0.42c-0.17,0.08-0.46,0.17-0.95,0.17c-0.1,0-0.29,0-0.57,0.01L88.87,14z M90.88,9.58l-0.96,3.58
					c0.02,0,0.04,0,0.06,0c0.38,0,0.57-0.07,0.62-0.09c0.15-0.07,0.27-0.15,0.37-0.25c0.14-0.14,0.27-0.33,0.38-0.55
					c0.16-0.31,0.29-0.65,0.38-1c0.09-0.32,0.14-0.65,0.14-0.95c0.01-0.22-0.02-0.41-0.07-0.55c-0.02-0.06-0.05-0.09-0.11-0.13
					c0,0-0.07-0.05-0.3-0.05H90.88z"/>
			</g>
		</g>
	</g>
	<g>
		<g>
			<g>
				<path class="st7" d="M107.72,28.13c-1.14,0-2.09-0.07-2.9-0.23c-0.76-0.14-1.32-0.81-1.32-1.59V9.74l-0.48,0.01h-3.44
					c-0.77,0-1.43-0.54-1.58-1.29c-0.15-0.75-0.23-1.6-0.23-2.54c0-0.94,0.08-1.79,0.23-2.54c0.15-0.75,0.82-1.29,1.58-1.29h16.36
					c0.71,0,1.34,0.46,1.55,1.14c0.22,0.73,0.34,1.6,0.34,2.57c0,1.65-0.68,2.56-1.25,3.03c-0.75,0.62-1.78,0.92-3.15,0.92h-0.96
					L112,9.74l0.01,0.78v15.79c0,0.78-0.56,1.45-1.33,1.59C109.84,28.05,108.84,28.13,107.72,28.13z"/>
				<path class="st8" d="M107.72,28.53c-1.17,0-2.14-0.08-2.97-0.23c-0.95-0.18-1.65-1.02-1.65-1.99V10.15l-0.07,0h-3.44
					c-0.96,0-1.79-0.68-1.98-1.61c-0.16-0.78-0.24-1.66-0.24-2.63c0-0.96,0.08-1.85,0.24-2.62c0.19-0.94,1.03-1.62,1.98-1.62h16.36
					c0.9,0,1.67,0.57,1.93,1.43c0.23,0.77,0.35,1.67,0.35,2.69c0,1.8-0.76,2.81-1.39,3.34c-0.82,0.68-1.94,1.02-3.41,1.02l-1.03,0
					l0.01,0.37v15.8c0,0.98-0.7,1.82-1.67,1.99C109.88,28.45,108.87,28.53,107.72,28.53z M103.91,9.33v16.99
					c0,0.58,0.42,1.08,0.99,1.19c0.78,0.15,1.71,0.22,2.82,0.22c1.1,0,2.07-0.07,2.88-0.22c0.58-0.1,1-0.61,1-1.19l-0.02-16.99
					l1.85,0.01c1.28,0,2.22-0.27,2.9-0.83c0.5-0.42,1.1-1.23,1.1-2.72c0-0.94-0.11-1.76-0.32-2.46c-0.16-0.51-0.62-0.86-1.16-0.86
					H99.59c-0.57,0-1.07,0.41-1.19,0.97C98.26,4.17,98.18,5,98.18,5.91c0,0.91,0.07,1.74,0.22,2.46c0.12,0.56,0.61,0.97,1.19,0.97
					L103.91,9.33z"/>
			</g>
		</g>
		<g>
			<g>
				<path class="st7" d="M135.9,28.13c-1.17,0-2.12-0.07-2.93-0.23c-0.76-0.14-1.32-0.81-1.32-1.59v-7.02l0.01-0.8h-3.91l0.01,0.78
					v7.04c0,0.77-0.55,1.44-1.31,1.59c-0.79,0.15-1.75,0.23-2.94,0.23c-1.19,0-2.15-0.07-2.94-0.23c-0.76-0.15-1.31-0.81-1.31-1.59
					V3.69c0-0.77,0.55-1.44,1.31-1.59c0.79-0.15,1.75-0.23,2.94-0.23c1.19,0,2.15,0.07,2.94,0.23c0.76,0.15,1.31,0.81,1.31,1.59
					v6.33l-0.01,0.8h3.91l-0.01-0.78V3.69c0-0.77,0.55-1.44,1.31-1.59c0.79-0.15,1.76-0.23,2.96-0.23c1.2,0,2.16,0.08,2.94,0.23
					c0.75,0.15,1.3,0.81,1.3,1.58v22.62c0,0.78-0.55,1.44-1.32,1.59C138.02,28.05,137.06,28.13,135.9,28.13z"/>
				<path class="st8" d="M135.9,28.53c-1.19,0-2.18-0.08-3.01-0.23c-0.95-0.18-1.64-1.02-1.64-1.99l0-7.42h-3.09l0,0.37v7.05
					c0,0.96-0.69,1.8-1.63,1.98c-0.82,0.16-1.8,0.24-3.02,0.24c-1.22,0-2.2-0.08-3.02-0.24c-0.95-0.18-1.63-1.02-1.63-1.98V3.69
					c0-0.97,0.69-1.8,1.63-1.98c0.82-0.16,1.8-0.24,3.02-0.24c1.21,0,2.2,0.08,3.02,0.24c0.95,0.18,1.63,1.02,1.63,1.98l0,6.72h3.09
					l0-0.37V3.69c0-0.97,0.69-1.8,1.63-1.98c0.82-0.16,1.81-0.24,3.04-0.24c1.23,0,2.22,0.08,3.01,0.24
					c0.94,0.19,1.62,1.02,1.62,1.98v22.62c0,0.97-0.69,1.81-1.65,1.99C138.07,28.45,137.09,28.53,135.9,28.53z M127.34,18.08h4.73
					l-0.02,1.21v7.02c0,0.58,0.42,1.08,0.99,1.19c0.78,0.15,1.72,0.22,2.86,0.22c1.14,0,2.07-0.07,2.86-0.22
					c0.57-0.11,0.99-0.61,0.99-1.19V3.69c0-0.58-0.41-1.08-0.97-1.19c-0.75-0.15-1.68-0.22-2.86-0.22c-1.17,0-2.12,0.07-2.88,0.22
					c-0.57,0.11-0.98,0.61-0.98,1.19l0.02,7.53h-4.73l0.02-1.21V3.69c0-0.58-0.41-1.08-0.98-1.19c-0.76-0.15-1.7-0.22-2.86-0.22
					c-1.16,0-2.1,0.07-2.86,0.22c-0.57,0.11-0.98,0.61-0.98,1.19v22.62c0,0.58,0.41,1.08,0.98,1.19c0.76,0.15,1.7,0.22,2.87,0.22
					c1.16,0,2.1-0.07,2.87-0.22c0.57-0.11,0.98-0.61,0.98-1.19L127.34,18.08z"/>
			</g>
		</g>
		<g>
			<g>
				<path class="st7" d="M147.16,28.13c-1.2,0-2.16-0.07-2.96-0.23c-0.76-0.15-1.31-0.81-1.31-1.59V3.69c0-0.77,0.55-1.44,1.31-1.59
					c0.79-0.15,1.76-0.23,2.96-0.23c1.19,0,2.17,0.07,2.98,0.23c0.76,0.14,1.32,0.81,1.32,1.59v22.62c0,0.78-0.55,1.45-1.32,1.59
					C149.33,28.05,148.35,28.13,147.16,28.13z"/>
				<path class="st8" d="M147.16,28.53c-1.22,0-2.22-0.08-3.03-0.24c-0.95-0.18-1.64-1.02-1.64-1.98V3.69c0-0.97,0.69-1.8,1.64-1.98
					c0.82-0.16,1.81-0.24,3.03-0.24c1.22,0,2.22,0.08,3.05,0.23c0.96,0.18,1.65,1.01,1.65,1.99v22.62c0,0.97-0.69,1.81-1.65,1.99
					C149.38,28.45,148.38,28.53,147.16,28.53z M147.16,2.28c-1.17,0-2.11,0.07-2.88,0.22c-0.57,0.11-0.98,0.61-0.98,1.19v22.62
					c0,0.58,0.41,1.08,0.98,1.19c0.77,0.15,1.71,0.22,2.88,0.22c1.17,0,2.12-0.07,2.91-0.22c0.57-0.11,0.99-0.61,0.99-1.19V3.69
					c0-0.58-0.42-1.08-0.99-1.19C149.28,2.35,148.33,2.28,147.16,2.28z"/>
			</g>
		</g>
		<g>
			<g>
				<path class="st7" d="M170.24,28.13c-1.27,0-2.43-0.07-3.43-0.22c-0.55-0.08-1.03-0.44-1.25-0.95l-3.7-8.43
					c0,0.4,0.01,0.8,0.01,1.19v6.59c0,0.77-0.55,1.44-1.31,1.59c-0.79,0.15-1.71,0.23-2.79,0.23c-1.09,0-1.99-0.08-2.77-0.23
					c-0.76-0.15-1.3-0.81-1.3-1.58V3.79c0-0.75,0.51-1.4,1.24-1.57c0.96-0.23,2.1-0.34,3.4-0.34c1.25,0,2.39,0.07,3.39,0.21
					c0.56,0.08,1.03,0.44,1.25,0.96l3.83,8.82c0-0.38-0.01-0.77-0.01-1.15V6.67c0-1.59,0.37-2.76,1.13-3.57
					c0.78-0.84,1.93-1.26,3.43-1.26h1.76c0.43,0,0.84,0.17,1.14,0.47l0.23,0.23c0.3,0.3,0.47,0.71,0.47,1.14v22.52
					c0,0.76-0.52,1.41-1.26,1.58C172.73,28.01,171.55,28.13,170.24,28.13z"/>
				<path class="st8" d="M170.24,28.53c-1.29,0-2.47-0.07-3.48-0.22c-0.7-0.1-1.28-0.54-1.56-1.19l-2.92-6.66v5.84
					c0,0.97-0.69,1.8-1.64,1.98c-0.82,0.16-1.76,0.24-2.87,0.24c-1.12,0-2.05-0.08-2.85-0.24c-0.94-0.19-1.62-1.02-1.62-1.98V3.79
					c0-0.94,0.64-1.75,1.56-1.97c0.99-0.23,2.16-0.35,3.5-0.35c1.27,0,2.43,0.07,3.45,0.22c0.69,0.1,1.29,0.56,1.57,1.2l3.05,7.02
					V6.67c0-1.69,0.41-2.95,1.24-3.85c0.86-0.92,2.11-1.39,3.73-1.39h1.76c0.54,0,1.05,0.21,1.43,0.59l0.23,0.23
					c0.38,0.38,0.59,0.89,0.59,1.43v22.52c0,0.95-0.65,1.76-1.58,1.97C172.79,28.41,171.58,28.53,170.24,28.53z M161.44,16.56
					l4.49,10.24c0.17,0.39,0.52,0.65,0.94,0.71c0.98,0.14,2.11,0.21,3.37,0.21c1.29,0,2.43-0.11,3.4-0.33
					c0.56-0.13,0.95-0.61,0.95-1.18V3.69c0-0.32-0.13-0.63-0.36-0.86l-0.23-0.23c-0.23-0.23-0.53-0.35-0.86-0.35h-1.76
					c-1.38,0-2.44,0.38-3.14,1.13c-0.69,0.74-1.02,1.81-1.02,3.29v4.04c0,0.38,0,0.77,0.01,1.15l0.02,2l-4.62-10.65
					c-0.17-0.38-0.53-0.66-0.94-0.72c-0.98-0.14-2.1-0.21-3.33-0.21c-1.27,0-2.38,0.11-3.31,0.33c-0.55,0.13-0.93,0.62-0.93,1.18
					v22.52c0,0.58,0.41,1.08,0.97,1.19c0.75,0.15,1.63,0.22,2.69,0.22c1.06,0,1.95-0.07,2.71-0.22c0.57-0.11,0.98-0.61,0.98-1.19
					v-6.59c0-0.4,0-0.79-0.01-1.19L161.44,16.56z"/>
			</g>
		</g>
		<g>
			<g>
				<path class="st7" d="M188.36,28.42c-1.81,0-3.44-0.31-4.86-0.93c-1.45-0.63-2.69-1.55-3.68-2.73c-0.97-1.16-1.7-2.59-2.18-4.25
					c-0.46-1.58-0.69-3.39-0.69-5.37c0-2.2,0.33-4.17,0.99-5.84c0.66-1.69,1.57-3.13,2.71-4.27c1.14-1.15,2.47-2.03,3.96-2.61
					c1.46-0.57,3.01-0.85,4.59-0.85c3.17,0,6.18,0.89,8.94,2.63c0.5,0.32,0.79,0.88,0.75,1.47c-0.03,0.52-0.15,1.05-0.36,1.57
					c-0.18,0.45-0.4,0.89-0.66,1.31c-0.28,0.45-0.6,0.86-0.96,1.23c-0.34,0.34-0.7,0.65-1.07,0.9c-0.28,0.19-0.6,0.29-0.92,0.29
					c-0.31,0-0.61-0.09-0.88-0.26c-1.58-1.03-3.11-1.53-4.68-1.53c-1.13,0-3.78,0-3.78,5.94c0,5.9,2.74,5.9,3.92,5.9
					c0.44,0,0.86-0.02,1.27-0.05c0,0,0-1.27,0-1.48c-1.4,0-2.41-0.34-3.09-1.02c-0.68-0.68-1.02-1.64-1.02-2.85
					c0-0.82,0.15-1.71,0.44-2.64c0.21-0.67,0.83-1.13,1.53-1.13l5.2-0.03c3.22,0,5.14,1.84,5.14,4.93v8.71
					c0,0.7-0.46,1.33-1.13,1.54C194.83,27.94,191.64,28.42,188.36,28.42z"/>
				<path class="st8" d="M188.36,28.83c-1.86,0-3.55-0.32-5.03-0.96c-1.51-0.65-2.8-1.61-3.83-2.85c-1.01-1.21-1.77-2.68-2.26-4.39
					c-0.47-1.62-0.71-3.47-0.71-5.48c0-2.25,0.34-4.27,1.02-5.99c0.68-1.74,1.62-3.22,2.8-4.41c1.18-1.19,2.56-2.1,4.1-2.7
					c1.51-0.59,3.1-0.88,4.74-0.88c3.24,0,6.33,0.91,9.16,2.7c0.63,0.39,0.98,1.1,0.94,1.83c-0.03,0.56-0.16,1.13-0.38,1.69
					c-0.19,0.48-0.42,0.94-0.69,1.38c-0.29,0.48-0.64,0.91-1.02,1.3c-0.36,0.36-0.74,0.68-1.12,0.94c-0.66,0.46-1.58,0.47-2.25,0.03
					c-1.51-0.98-2.97-1.46-4.46-1.46c-1.1,0-3.38,0-3.38,5.53c0,5.5,2.37,5.5,3.51,5.5c0.29,0,0.58-0.01,0.86-0.03
					c0-0.22,0-0.49,0-0.71c-1.3-0.07-2.28-0.44-2.97-1.13c-0.76-0.76-1.14-1.81-1.14-3.13c0-0.87,0.15-1.79,0.46-2.76
					c0.26-0.84,1.03-1.41,1.91-1.41l5.2-0.03c3.42,0,5.54,2.04,5.54,5.33v8.71c0,0.88-0.57,1.66-1.41,1.93
					C194.91,28.34,191.68,28.83,188.36,28.83z M189.19,1.98c-1.54,0-3.03,0.28-4.45,0.83c-1.44,0.56-2.72,1.4-3.82,2.51
					c-1.09,1.11-1.98,2.5-2.62,4.14c-0.64,1.62-0.96,3.54-0.96,5.69c0,1.94,0.23,3.71,0.68,5.26c0.46,1.6,1.17,2.98,2.1,4.1
					c0.95,1.14,2.14,2.02,3.53,2.62c1.37,0.59,2.96,0.89,4.7,0.89c3.24,0,6.39-0.48,9.34-1.41c0.51-0.16,0.85-0.62,0.85-1.16v-8.71
					c0-2.88-1.73-4.52-4.73-4.52l-5.2,0.03c-0.53,0-0.99,0.34-1.15,0.85c-0.28,0.89-0.42,1.73-0.42,2.52c0,1.1,0.3,1.96,0.9,2.56
					c0.6,0.6,1.52,0.9,2.81,0.9l0.41,0l0,0.41c0,0.21,0,1.48,0,1.48v0.37l-0.37,0.03c-0.41,0.04-0.85,0.06-1.3,0.06
					c-1.18,0-4.32,0-4.32-6.31c0-6.34,3.04-6.34,4.19-6.34c1.65,0,3.25,0.52,4.9,1.59c0.4,0.26,0.96,0.25,1.35-0.02
					c0.35-0.24,0.69-0.53,1.01-0.85c0.34-0.34,0.65-0.73,0.91-1.15c0.24-0.4,0.45-0.82,0.63-1.25c0.19-0.48,0.3-0.97,0.33-1.44
					c0.03-0.44-0.19-0.86-0.56-1.1C195.21,2.85,192.28,1.98,189.19,1.98z"/>
			</g>
		</g>
	</g>
</g>
</svg>
